<svg height="782" width="720" xmlns="http://www.w3.org/2000/svg">
<rect height="782" fill="#555" width="720"></rect>
<text fill="#7f7" font-family="Courier New" font-size="12" xml:space="preserve">
<tspan x="10" y="26">3 megabytes installed</tspan>
<tspan x="10" y="42"></tspan>
<tspan x="10" y="58">node_modules</tspan>
<tspan x="10" y="74">├── UNMET PEER DEPENDENCY grunt@~0.4.4</tspan>
<tspan x="10" y="90">├─┬ grunt-contrib@0.11.0 </tspan>
<tspan x="10" y="106">│ └─┬ matchdep@0.3.0 </tspan>
<tspan x="10" y="122">│   ├─┬ findup-sync@0.1.3 </tspan>
<tspan x="10" y="138">│   │ ├─┬ glob@3.2.11 </tspan>
<tspan x="10" y="154">│   │ │ ├── inherits@2.0.3 </tspan>
<tspan x="10" y="170">│   │ │ └── minimatch@0.3.0 </tspan>
<tspan x="10" y="186">│   │ └── lodash@2.4.2 </tspan>
<tspan x="10" y="202">│   ├─┬ globule@0.1.0 </tspan>
<tspan x="10" y="218">│   │ ├─┬ glob@3.1.21 </tspan>
<tspan x="10" y="234">│   │ │ ├── graceful-fs@1.2.3 </tspan>
<tspan x="10" y="250">│   │ │ └── inherits@1.0.2 </tspan>
<tspan x="10" y="266">│   │ ├── lodash@1.0.2 </tspan>
<tspan x="10" y="282">│   │ └─┬ minimatch@0.2.14 </tspan>
<tspan x="10" y="298">│   │   ├── lru-cache@2.7.3 </tspan>
<tspan x="10" y="314">│   │   └── sigmund@1.0.1 </tspan>
<tspan x="10" y="330">│   ├── resolve@0.5.1 </tspan>
<tspan x="10" y="346">│   └── stack-trace@0.0.7 </tspan>
<tspan x="10" y="362">├── UNMET PEER DEPENDENCY grunt-contrib-clean@~0.5.0</tspan>
<tspan x="10" y="378">├── UNMET PEER DEPENDENCY grunt-contrib-coffee@~0.10.0</tspan>
<tspan x="10" y="394">├── UNMET PEER DEPENDENCY grunt-contrib-compass@~0.7.0</tspan>
<tspan x="10" y="410">├── UNMET PEER DEPENDENCY grunt-contrib-compress@~0.8.0</tspan>
<tspan x="10" y="426">├── UNMET PEER DEPENDENCY grunt-contrib-concat@~0.4.0</tspan>
<tspan x="10" y="442">├── UNMET PEER DEPENDENCY grunt-contrib-connect@~0.7.0</tspan>
<tspan x="10" y="458">├── UNMET PEER DEPENDENCY grunt-contrib-copy@~0.5.0</tspan>
<tspan x="10" y="474">├── UNMET PEER DEPENDENCY grunt-contrib-csslint@~0.2.0</tspan>
<tspan x="10" y="490">├── UNMET PEER DEPENDENCY grunt-contrib-cssmin@~0.9.0</tspan>
<tspan x="10" y="506">├── UNMET PEER DEPENDENCY grunt-contrib-handlebars@~0.8.0</tspan>
<tspan x="10" y="522">├── UNMET PEER DEPENDENCY grunt-contrib-htmlmin@~0.2.0</tspan>
<tspan x="10" y="538">├── UNMET PEER DEPENDENCY grunt-contrib-imagemin@~0.7.0</tspan>
<tspan x="10" y="554">├── UNMET PEER DEPENDENCY grunt-contrib-jade@~0.11.0</tspan>
<tspan x="10" y="570">├── UNMET PEER DEPENDENCY grunt-contrib-jasmine@~0.6.0</tspan>
<tspan x="10" y="586">├── UNMET PEER DEPENDENCY grunt-contrib-jshint@~0.10.0</tspan>
<tspan x="10" y="602">├── UNMET PEER DEPENDENCY grunt-contrib-jst@~0.6.0</tspan>
<tspan x="10" y="618">├── UNMET PEER DEPENDENCY grunt-contrib-less@~0.11.0</tspan>
<tspan x="10" y="634">├── UNMET PEER DEPENDENCY grunt-contrib-nodeunit@~0.3.0</tspan>
<tspan x="10" y="650">├── UNMET PEER DEPENDENCY grunt-contrib-qunit@~0.4.0</tspan>
<tspan x="10" y="666">├── UNMET PEER DEPENDENCY grunt-contrib-requirejs@~0.4.1</tspan>
<tspan x="10" y="682">├── UNMET PEER DEPENDENCY grunt-contrib-sass@~0.7.0</tspan>
<tspan x="10" y="698">├── UNMET PEER DEPENDENCY grunt-contrib-stylus@~0.15.1</tspan>
<tspan x="10" y="714">├── UNMET PEER DEPENDENCY grunt-contrib-symlink@~0.3.0</tspan>
<tspan x="10" y="730">├── UNMET PEER DEPENDENCY grunt-contrib-uglify@~0.4.0</tspan>
<tspan x="10" y="746">├── UNMET PEER DEPENDENCY grunt-contrib-watch@~0.6.0</tspan>
<tspan x="10" y="762">└── UNMET PEER DEPENDENCY grunt-contrib-yuidoc@~0.5.0</tspan>
</text>
</svg>
